<!-- <svg xmlns="http://www.w3.org/2000/svg" fill="none" viewBox="0 0 36 36">
  <path fill="#000" d="M22.25 4h-8.5a1 1 0 0 0-.96.73l-5.54 19.4a.5.5 0 0 0 .62.62l5.05-1.44a2 2 0 0 0 1.38-1.4l3.22-11.66a.5.5 0 0 1 .96 0l3.22 11.67a2 2 0 0 0 1.38 1.39l5.05 1.44a.5.5 0 0 0 .62-.62l-5.54-19.4a1 1 0 0 0-.96-.73Z"/>
  <path fill="url(#gradient)" d="M18 28a7.63 7.63 0 0 1-5-2c-1.4 2.1-.35 4.35.6 5.55.14.17.41.07.47-.15.44-1.8 2.93-1.22 2.93.6 0 2.28.87 3.4 1.72 3.81.34.16.59-.2.49-.56-.31-1.05-.29-2.46 1.29-3.25 3-1.5 3.17-4.83 2.5-6-.67.67-2.6 2-5 2Z"/>
  <defs>
    <linearGradient id="gradient" x1="16" x2="16" y1="32" y2="24" gradientUnits="userSpaceOnUse">
      <stop stop-color="#000"/>
      <stop offset="1" stop-color="#000" stop-opacity="0"/>
    </linearGradient>
  </defs>
	<style>
    @media (prefers-color-scheme:dark){:root{filter:invert(100%)}}
  </style>
</svg> -->
<svg xmlns="http://www.w3.org/2000/svg" width="1em" height="1em" viewBox="0 0 64 64">
	<path fill="#546e7a" d="M32.01 21.784q-3.603 0-5.748 2.657c-2.145 2.657-2.146 4.291-2.146 7.56q.001 4.901 2.146 7.559c2.145 2.658 3.346 2.657 5.748 2.657s4.309-.886 5.719-2.657s2.115-4.291 2.115-7.559q0-4.882-2.115-7.55c-2.115-2.668-3.317-2.667-5.719-2.667" />
	<path fill="#546e7a" d="M32 2C15.432 2 2 15.432 2 32s13.432 30 30 30s30-13.432 30-30S48.568 2 32 2m9.518 41.969q-3.287 3.387-9.508 3.386c-6.221-.001-7.316-1.128-9.508-3.386q-4.41-4.154-4.41-11.968q0-7.973 4.41-11.969q3.287-3.387 9.508-3.387c6.221 0 7.316 1.129 9.508 3.387q4.392 3.996 4.391 11.969q-.001 7.814-4.391 11.968" />
</svg>